M48
; DRILL file {KiCad (5.1.2)-1} date 06/30/19 13:56:44
; FORMAT={3:3/ absolute / metric / suppress leading zeros}
; #@! TF.CreationDate,2019-06-30T13:56:44+03:00
; #@! TF.GenerationSoftware,Kicad,Pcbnew,(5.1.2)-1
FMAT,2
METRIC,TZ
T1C0.400
T2C1.000
T3C1.100
T4C1.500
T5C2.000
T6C2.750
T7C3.200
T8C3.500
T9C5.300
%
G90
G05
T1
X92928Y-74230
X92928Y-76480
X92928Y-78730
X92928Y-80980
X98428Y-73480
X101928Y-85980
X104428Y-85980
X106928Y-85980
X107928Y-67980
X113415Y-71993
X113428Y-76480
X113428Y-69730
X113428Y-74230
X113428Y-78730
X113428Y-80980
X118178Y-80730
X119428Y-83230
X119678Y-75230
X119678Y-76480
X120428Y-79230
X121428Y-83230
X124921Y-77451
X124928Y-79478
X130178Y-69749
X130178Y-74249
X130194Y-78712
X130194Y-80998
T2
X76928Y-73730
X76928Y-76270
X76928Y-78810
X79468Y-73730
X79468Y-76270
X79468Y-78810
X99428Y-90230
X99428Y-92770
X101968Y-90230
X101968Y-92770
X104508Y-90230
X104508Y-92770
X107048Y-90230
X107048Y-92770
X109588Y-90230
X109588Y-92770
X112128Y-90230
X112128Y-92770
X114668Y-90230
X114668Y-92770
X117208Y-90230
X117208Y-92770
X119748Y-90230
X119748Y-92770
X122288Y-90230
X122288Y-92770
X124828Y-90230
X124828Y-92770
X127368Y-90230
X127368Y-92770
X129908Y-90230
X129908Y-92770
X132448Y-90230
X132448Y-92770
X134988Y-90230
X134988Y-92770
X137528Y-90230
X137528Y-92770
X140068Y-90230
X140068Y-92770
X142608Y-90230
X142608Y-92770
X145148Y-90230
X145148Y-92770
X147688Y-90230
X147688Y-92770
X76928Y-86230
X76928Y-88770
X76928Y-91310
X79468Y-86230
X79468Y-88770
X79468Y-91310
X76928Y-66480
X79468Y-66480
X82008Y-66480
T3
X136178Y-77480
X136178Y-80020
X136178Y-82560
T4
X77248Y-114350
X154718Y-99110
T5
X80178Y-106730
X152178Y-106730
T6
X94558Y-68500
X94558Y-91500
X152558Y-68500
X152558Y-91500
T7
X87923Y-106730
X115728Y-106730
X143533Y-106730
T8
X152838Y-80020
T9
X71178Y-69730
X71178Y-112230
X160178Y-112230
X160178Y-69730
T0
M30
